<?xml version="1.0" encoding="utf-8"?>
<!-- Generator: Adobe Illustrator 23.0.3, SVG Export Plug-In . SVG Version: 6.00 Build 0)  -->
<svg version="1.1" id="Layer_1" xmlns="http://www.w3.org/2000/svg" xmlns:xlink="http://www.w3.org/1999/xlink" x="0px" y="0px"
	 viewBox="0 0 2181 590" style="enable-background:new 0 0 2181 590;" xml:space="preserve">
<style type="text/css">
	.st0{fill:#E5E5E5;}
</style>
<g>
	<g id="dr.psd">
		
			<image style="overflow:visible;" width="1080" height="1080" id="dr" xlink:href="1CCF3E2F.png"  transform="matrix(0.5451 0 0 0.5451 -3.0949 0.6667)">
		</image>
	</g>
	<g>
		<path class="st0" d="M842.4,408.3c1.1,5.1,1.8,7,1.9,8.8c1.7,30.3,1.7,30.4-29.2,30.4c-46.3,0-92.6-0.5-138.9,0.2
			c-15.5,0.2-20.9-4.6-20.8-20.6c0.7-74.2,0.6-148.4,0.1-222.7c-0.1-13.8,3.9-18.9,18.4-18.6c50.7,0.8,101.5,0.8,152.2,0.1
			c14-0.2,19.1,3.8,18.7,18.3c-0.3,14-1.9,22.7-19.4,22.2c-33.6-1.1-67.2-0.4-100.9-0.3c-11.6,0.1-24.1-3.5-24.5,16.6
			c-0.3,19.8,11.5,17.4,23.6,17.3c34.3,0,68.5,0.5,102.8-0.4c14.4-0.4,18.6,5,18.4,18.8c-0.3,13.3-1.7,21.4-18.4,20.9
			c-35.5-1.1-71,0-106.6-0.6c-13.2-0.2-19.8,2.9-19.5,17.9c0.2,14.1,6.5,16.9,18.7,16.7c34.9-0.5,69.8,0.4,104.7-0.4
			c14.9-0.4,21.2,3,21.3,19.7c0.2,17.9-8.4,19.2-22.2,18.9c-34.9-0.6-69.8,0.3-104.7-0.5c-15.1-0.3-17.7,7-17.8,19.9
			c-0.1,13.2,4.6,17.8,17.8,17.6c34.2-0.6,68.5-0.2,102.8-0.2C827.9,408.3,834.7,408.3,842.4,408.3z"/>
		<path class="st0" d="M1123.6,272.4c36.8,16.3,46.6,44.6,39.1,80.3c-5.6,26.6-26.8,46.9-58.1,49.3c-42.8,3.2-86,2.9-129,2.9
			c-4,0-11.5-8-11.5-12.3c-0.7-78.5-0.7-157.1-0.1-235.6c0-4.3,6.4-12.1,9.7-12.1c41.1,0.1,82.3-0.2,123.2,3
			c28.5,2.2,50.3,18.2,58,47.3c7.6,28.7-2.6,52.2-25.8,70.3C1127.7,266.5,1126.8,268.2,1123.6,272.4z M1053.2,366
			c10.1,0,20.2,0.7,30.3-0.1c24.9-1.9,38.3-14.6,38.5-35.5c0.2-21.5-12.2-35-36.9-37.4c-16.3-1.6-32.8-0.9-49.2-0.9
			c-28.8-0.1-28.8,0-28.7,29.1C1007.3,366.7,1007.3,366.7,1053.2,366z M1047.7,256.4c14.3-2.1,29-2.8,42.7-6.8
			c16.5-4.8,24.2-17.9,22.6-35.2c-1.5-16.8-12.2-26.6-28-29c-14.9-2.2-30.2-2.5-45.4-2.6c-32.4-0.3-32.4,0-32.3,31.5
			C1007.3,254.4,1007.3,254.4,1047.7,256.4z"/>
		<path class="st0" d="M1884.9,273.7c0.2,75.8-57.4,133.1-134,133.2c-76.9,0.1-133.1-56.4-132.7-133.5
			c0.4-75.3,57.4-131.3,133.4-131.1C1828.4,142.5,1884.8,198.1,1884.9,273.7z M1752.2,366.8c50.1-0.1,87.6-39.4,88.1-92.3
			c0.5-51.7-40.1-93.7-89.9-93.3c-49.7,0.5-88.1,40.9-88,92.7C1662.4,326.6,1701.4,366.9,1752.2,366.8z"/>
		<path class="st0" d="M1394.6,142.2c77.4,0,134.2,56.6,133.6,133c-0.7,75.9-58.4,132.1-135.5,131.7
			c-74.5-0.4-132.1-57.7-132.1-131.3C1260.5,199.8,1318.5,142.2,1394.6,142.2z M1483.8,275.2c0.4-51.8-39.7-93.9-89.5-93.8
			c-49,0-88,39.6-88.9,90.1c-0.9,53.6,38.1,95.2,89.5,95.4C1444.9,367.1,1483.4,327.3,1483.8,275.2z"/>
		<path class="st0" d="M2051.6,296.1c0-30.4-0.8-60.9,0.3-91.2c0.6-16.5-5.9-21-21.1-20.2c-17.7,0.9-35.5-0.3-53.2,0.5
			c-17.8,0.8-14.5-11.3-15-21.8c-0.5-11,0.1-19.6,15.4-19.5c64,0.6,128,0.6,192,0c15.1-0.1,14.6,8.9,13.7,18.6
			c-0.8,9.4,5.2,23.2-13.6,22.6c-19-0.6-38,0.6-57-0.4c-14.4-0.7-18.6,5-18.4,18.9c0.6,58.9,0.1,117.8,0.7,176.8
			c0.2,15.7-0.5,26.1-21.5,26c-19.6-0.1-23.2-7.7-22.5-24.7c1.1-28.5,0.3-57,0.3-85.5C2051.6,296.1,2051.6,296.1,2051.6,296.1z"/>
		
			<rect x="1369.9" y="249.3" transform="matrix(0.7071 0.7071 -0.7071 0.7071 603.3933 -906.3486)" class="st0" width="51.8" height="51.8"/>
		
			<rect x="1724.9" y="249.3" transform="matrix(0.7071 0.7071 -0.7071 0.7071 707.394 -1157.4285)" class="st0" width="51.8" height="51.8"/>
		<path class="st0" d="M539.6,256.2c19.1-51.2-9-101.2-63-107.7c-44.4-5.3-89.8-3.4-134.7-3.3c-3.5,0-10.1,10.1-10.2,15.6
			c-0.7,76.1-0.2,152.2-0.6,228.3c-0.1,12.6,4.8,16.4,16.7,16.7c25.5,0.7,25.5,1.2,25.7-24c0.1-6.3-0.1-12.7,0-19
			c1-64.5-10.9-51.9,55.9-54c12.7-0.4,19.8,5,24.5,16.3c7.5,18.2,15.7,36,23.8,53.9c12.9,28.9,23.5,33.3,58.5,22.5
			c-14.7-32.9-29.2-65.7-45-101.1c7.8-3.9,15.1-5.8,19.7-10.4C521.5,279.5,534.7,269.3,539.6,256.2z M497.3,240.7
			c-2.3,7.9-11.4,13.9-17.4,20.7c0,0-44.6,9.1-87.8,8.8c-1.9,0-3.8,0-5.7-0.1c-4.5-0.3-11.2-7.4-12.2-12.4c-1.9-9.7-0.6-20-0.6-30.1
			c0,0-0.1,0-0.1,0c0-10.1-0.8-20.3,0.4-30.2c0.6-4.5,5.2-8.5,8-12.8l77.7,1.3l0.1,0.2C488.7,188.4,505.9,211.5,497.3,240.7z"/>
	</g>
</g>
</svg>
